<mxfile host="app.diagrams.net" agent="Mozilla/5.0 (Windows NT 10.0; Win64; x64) AppleWebKit/537.36 (KHTML, like Gecko) Chrome/135.0.0.0 Safari/537.36" version="26.2.14">
  <diagram name="Page-1" id="Uywifpc0COhW7WBC4VhJ">
    <mxGraphModel dx="1292" dy="816" grid="1" gridSize="10" guides="1" tooltips="1" connect="1" arrows="1" fold="1" page="1" pageScale="1" pageWidth="850" pageHeight="1100" math="0" shadow="0">
      <root>
        <mxCell id="0" />
        <mxCell id="1" parent="0" />
        <mxCell id="k9Bzp2234azyIfwSC0rA-10" style="edgeStyle=orthogonalEdgeStyle;rounded=0;orthogonalLoop=1;jettySize=auto;html=1;exitX=1;exitY=0.5;exitDx=0;exitDy=0;entryX=0.5;entryY=1;entryDx=0;entryDy=0;" edge="1" parent="1" source="k9Bzp2234azyIfwSC0rA-1" target="k9Bzp2234azyIfwSC0rA-4">
          <mxGeometry relative="1" as="geometry" />
        </mxCell>
        <mxCell id="k9Bzp2234azyIfwSC0rA-1" value="" style="ellipse;whiteSpace=wrap;html=1;aspect=fixed;strokeColor=default;fillColor=#000000;" vertex="1" parent="1">
          <mxGeometry x="90" y="260" width="30" height="30" as="geometry" />
        </mxCell>
        <mxCell id="k9Bzp2234azyIfwSC0rA-2" value="Initial State" style="text;html=1;align=center;verticalAlign=middle;resizable=0;points=[];autosize=1;strokeColor=none;fillColor=none;" vertex="1" parent="1">
          <mxGeometry x="70" y="300" width="80" height="30" as="geometry" />
        </mxCell>
        <mxCell id="k9Bzp2234azyIfwSC0rA-11" style="rounded=0;orthogonalLoop=1;jettySize=auto;html=1;exitX=0.25;exitY=0;exitDx=0;exitDy=0;entryX=0;entryY=0.5;entryDx=0;entryDy=0;" edge="1" parent="1" source="k9Bzp2234azyIfwSC0rA-4" target="k9Bzp2234azyIfwSC0rA-6">
          <mxGeometry relative="1" as="geometry" />
        </mxCell>
        <mxCell id="k9Bzp2234azyIfwSC0rA-13" value="userSubmitsReservationRequest" style="edgeLabel;html=1;align=center;verticalAlign=middle;resizable=0;points=[];" vertex="1" connectable="0" parent="k9Bzp2234azyIfwSC0rA-11">
          <mxGeometry x="-0.26" y="2" relative="1" as="geometry">
            <mxPoint x="-32" y="-18" as="offset" />
          </mxGeometry>
        </mxCell>
        <mxCell id="k9Bzp2234azyIfwSC0rA-12" style="rounded=0;orthogonalLoop=1;jettySize=auto;html=1;exitX=0.75;exitY=0;exitDx=0;exitDy=0;entryX=0;entryY=0.5;entryDx=0;entryDy=0;" edge="1" parent="1" source="k9Bzp2234azyIfwSC0rA-4" target="k9Bzp2234azyIfwSC0rA-8">
          <mxGeometry relative="1" as="geometry" />
        </mxCell>
        <mxCell id="k9Bzp2234azyIfwSC0rA-4" value="" style="rounded=0;whiteSpace=wrap;html=1;direction=south;fillColor=light-dark(#4b4949, #ededed);" vertex="1" parent="1">
          <mxGeometry x="180" y="225" width="10" height="100" as="geometry" />
        </mxCell>
        <mxCell id="k9Bzp2234azyIfwSC0rA-6" value="&lt;span style=&quot;font-size: 12px;&quot;&gt;StateA.1 Processing&amp;nbsp;&amp;nbsp;&lt;/span&gt;" style="swimlane;childLayout=stackLayout;horizontal=1;startSize=50;horizontalStack=0;rounded=1;fontSize=14;fontStyle=0;strokeWidth=2;resizeParent=0;resizeLast=1;shadow=0;dashed=0;align=center;arcSize=4;whiteSpace=wrap;html=1;" vertex="1" parent="1">
          <mxGeometry x="240" y="80" width="160" height="120" as="geometry" />
        </mxCell>
        <mxCell id="k9Bzp2234azyIfwSC0rA-7" value="&lt;div&gt;entry/ validateTimeSlot()&amp;nbsp; |&lt;/div&gt;&lt;div&gt;entry/ isOverlapping()&amp;nbsp; &amp;nbsp; e&lt;span style=&quot;background-color: transparent; color: light-dark(rgb(0, 0, 0), rgb(255, 255, 255));&quot;&gt;ntry/allocateTableBySize()&amp;nbsp;&lt;/span&gt;&lt;/div&gt;" style="align=left;strokeColor=none;fillColor=none;spacingLeft=4;spacingRight=4;fontSize=12;verticalAlign=top;resizable=0;rotatable=0;part=1;html=1;whiteSpace=wrap;" vertex="1" parent="k9Bzp2234azyIfwSC0rA-6">
          <mxGeometry y="50" width="160" height="70" as="geometry" />
        </mxCell>
        <mxCell id="k9Bzp2234azyIfwSC0rA-25" style="rounded=0;orthogonalLoop=1;jettySize=auto;html=1;exitX=1;exitY=0.5;exitDx=0;exitDy=0;entryX=0;entryY=0;entryDx=0;entryDy=0;" edge="1" parent="1" source="k9Bzp2234azyIfwSC0rA-8" target="k9Bzp2234azyIfwSC0rA-18">
          <mxGeometry relative="1" as="geometry" />
        </mxCell>
        <mxCell id="k9Bzp2234azyIfwSC0rA-38" style="edgeStyle=orthogonalEdgeStyle;rounded=0;orthogonalLoop=1;jettySize=auto;html=1;exitX=0.5;exitY=0;exitDx=0;exitDy=0;entryX=0;entryY=0.5;entryDx=0;entryDy=0;" edge="1" parent="1" source="k9Bzp2234azyIfwSC0rA-8" target="k9Bzp2234azyIfwSC0rA-33">
          <mxGeometry relative="1" as="geometry" />
        </mxCell>
        <mxCell id="k9Bzp2234azyIfwSC0rA-8" value="&lt;span style=&quot;font-size: 12px;&quot;&gt;StateA.2 Processing&amp;nbsp;&amp;nbsp;&lt;/span&gt;" style="swimlane;childLayout=stackLayout;horizontal=1;startSize=50;horizontalStack=0;rounded=1;fontSize=14;fontStyle=0;strokeWidth=2;resizeParent=0;resizeLast=1;shadow=0;dashed=0;align=center;arcSize=4;whiteSpace=wrap;html=1;" vertex="1" parent="1">
          <mxGeometry x="280" y="420" width="160" height="80" as="geometry" />
        </mxCell>
        <mxCell id="k9Bzp2234azyIfwSC0rA-9" value="&lt;div&gt;entry/ adminlogin()&lt;/div&gt;" style="align=left;strokeColor=none;fillColor=none;spacingLeft=4;spacingRight=4;fontSize=12;verticalAlign=top;resizable=0;rotatable=0;part=1;html=1;whiteSpace=wrap;" vertex="1" parent="k9Bzp2234azyIfwSC0rA-8">
          <mxGeometry y="50" width="160" height="30" as="geometry" />
        </mxCell>
        <mxCell id="k9Bzp2234azyIfwSC0rA-14" value="gotoAdminLoginpage" style="edgeLabel;html=1;align=center;verticalAlign=middle;resizable=0;points=[];" vertex="1" connectable="0" parent="1">
          <mxGeometry x="220.00368828522846" y="350.0037875617094" as="geometry" />
        </mxCell>
        <mxCell id="k9Bzp2234azyIfwSC0rA-15" value="&lt;span style=&quot;font-size: 12px;&quot;&gt;StateB.1&amp;nbsp;Confirmed&lt;/span&gt;" style="swimlane;childLayout=stackLayout;horizontal=1;startSize=50;horizontalStack=0;rounded=1;fontSize=14;fontStyle=0;strokeWidth=2;resizeParent=0;resizeLast=1;shadow=0;dashed=0;align=center;arcSize=4;whiteSpace=wrap;html=1;" vertex="1" parent="1">
          <mxGeometry x="670" y="100" width="160" height="100" as="geometry" />
        </mxCell>
        <mxCell id="k9Bzp2234azyIfwSC0rA-16" value="&lt;div&gt;entry/ saveToMemory()&amp;nbsp;&lt;/div&gt;&lt;div&gt;entry/ saveToMongoDB()&lt;/div&gt;" style="align=left;strokeColor=none;fillColor=none;spacingLeft=4;spacingRight=4;fontSize=12;verticalAlign=top;resizable=0;rotatable=0;part=1;html=1;whiteSpace=wrap;" vertex="1" parent="k9Bzp2234azyIfwSC0rA-15">
          <mxGeometry y="50" width="160" height="50" as="geometry" />
        </mxCell>
        <mxCell id="k9Bzp2234azyIfwSC0rA-17" value="&lt;span style=&quot;font-size: 12px;&quot;&gt;StateB.2 Confirmed&lt;/span&gt;" style="swimlane;childLayout=stackLayout;horizontal=1;startSize=50;horizontalStack=0;rounded=1;fontSize=14;fontStyle=0;strokeWidth=2;resizeParent=0;resizeLast=1;shadow=0;dashed=0;align=center;arcSize=4;whiteSpace=wrap;html=1;" vertex="1" parent="1">
          <mxGeometry x="730" y="410" width="160" height="100" as="geometry" />
        </mxCell>
        <mxCell id="k9Bzp2234azyIfwSC0rA-18" value="viewAll()&lt;div&gt;searchByName()&lt;/div&gt;" style="align=left;strokeColor=none;fillColor=none;spacingLeft=4;spacingRight=4;fontSize=12;verticalAlign=top;resizable=0;rotatable=0;part=1;html=1;whiteSpace=wrap;" vertex="1" parent="k9Bzp2234azyIfwSC0rA-17">
          <mxGeometry y="50" width="160" height="50" as="geometry" />
        </mxCell>
        <mxCell id="k9Bzp2234azyIfwSC0rA-19" style="rounded=0;orthogonalLoop=1;jettySize=auto;html=1;exitX=1;exitY=0.5;exitDx=0;exitDy=0;entryX=0;entryY=0.25;entryDx=0;entryDy=0;" edge="1" parent="1" source="k9Bzp2234azyIfwSC0rA-7" target="k9Bzp2234azyIfwSC0rA-16">
          <mxGeometry relative="1" as="geometry" />
        </mxCell>
        <mxCell id="k9Bzp2234azyIfwSC0rA-20" value="timeValid &amp;amp; noConflict &amp;amp; tableAllocated" style="text;html=1;align=center;verticalAlign=middle;resizable=0;points=[];autosize=1;strokeColor=none;fillColor=none;" vertex="1" parent="1">
          <mxGeometry x="420" y="135" width="230" height="30" as="geometry" />
        </mxCell>
        <mxCell id="k9Bzp2234azyIfwSC0rA-21" value="&lt;span style=&quot;font-size: 12px;&quot;&gt;StateC.1&amp;nbsp;Cancelled&lt;/span&gt;" style="swimlane;childLayout=stackLayout;horizontal=1;startSize=50;horizontalStack=0;rounded=1;fontSize=14;fontStyle=0;strokeWidth=2;resizeParent=0;resizeLast=1;shadow=0;dashed=0;align=center;arcSize=4;whiteSpace=wrap;html=1;" vertex="1" parent="1">
          <mxGeometry x="1020" y="100" width="160" height="100" as="geometry" />
        </mxCell>
        <mxCell id="k9Bzp2234azyIfwSC0rA-22" value="&lt;div&gt;entry/deleteReservation()&lt;/div&gt;&lt;div&gt;entry/ saveToMemory()&amp;nbsp;&lt;/div&gt;&lt;div&gt;entry/ saveToMongoDB()&lt;/div&gt;" style="align=left;strokeColor=none;fillColor=none;spacingLeft=4;spacingRight=4;fontSize=12;verticalAlign=top;resizable=0;rotatable=0;part=1;html=1;whiteSpace=wrap;" vertex="1" parent="k9Bzp2234azyIfwSC0rA-21">
          <mxGeometry y="50" width="160" height="50" as="geometry" />
        </mxCell>
        <mxCell id="k9Bzp2234azyIfwSC0rA-23" style="edgeStyle=orthogonalEdgeStyle;rounded=0;orthogonalLoop=1;jettySize=auto;html=1;exitX=1;exitY=0.5;exitDx=0;exitDy=0;entryX=0;entryY=0.5;entryDx=0;entryDy=0;" edge="1" parent="1" source="k9Bzp2234azyIfwSC0rA-16" target="k9Bzp2234azyIfwSC0rA-22">
          <mxGeometry relative="1" as="geometry" />
        </mxCell>
        <mxCell id="k9Bzp2234azyIfwSC0rA-24" value="reservationCancelled" style="text;html=1;align=center;verticalAlign=middle;resizable=0;points=[];autosize=1;strokeColor=none;fillColor=none;" vertex="1" parent="1">
          <mxGeometry x="860" y="148" width="140" height="30" as="geometry" />
        </mxCell>
        <mxCell id="k9Bzp2234azyIfwSC0rA-26" value="Login Credentials Authenticated" style="text;whiteSpace=wrap;html=1;" vertex="1" parent="1">
          <mxGeometry x="480" y="460" width="240" height="40" as="geometry" />
        </mxCell>
        <mxCell id="k9Bzp2234azyIfwSC0rA-28" value="&lt;span style=&quot;font-size: 12px;&quot;&gt;StateC.3 HomePage&lt;/span&gt;" style="swimlane;childLayout=stackLayout;horizontal=1;startSize=50;horizontalStack=0;rounded=1;fontSize=14;fontStyle=0;strokeWidth=2;resizeParent=0;resizeLast=1;shadow=0;dashed=0;align=center;arcSize=4;whiteSpace=wrap;html=1;" vertex="1" parent="1">
          <mxGeometry x="1090" y="410" width="160" height="100" as="geometry" />
        </mxCell>
        <mxCell id="k9Bzp2234azyIfwSC0rA-29" value="LogOut()&lt;div&gt;BacktoBookingPage()&lt;/div&gt;" style="align=left;strokeColor=none;fillColor=none;spacingLeft=4;spacingRight=4;fontSize=12;verticalAlign=top;resizable=0;rotatable=0;part=1;html=1;whiteSpace=wrap;" vertex="1" parent="k9Bzp2234azyIfwSC0rA-28">
          <mxGeometry y="50" width="160" height="50" as="geometry" />
        </mxCell>
        <mxCell id="k9Bzp2234azyIfwSC0rA-30" style="edgeStyle=orthogonalEdgeStyle;rounded=0;orthogonalLoop=1;jettySize=auto;html=1;exitX=1;exitY=0.5;exitDx=0;exitDy=0;entryX=0;entryY=0.5;entryDx=0;entryDy=0;" edge="1" parent="1" source="k9Bzp2234azyIfwSC0rA-18" target="k9Bzp2234azyIfwSC0rA-29">
          <mxGeometry relative="1" as="geometry" />
        </mxCell>
        <mxCell id="k9Bzp2234azyIfwSC0rA-31" value="Logged out of admin&lt;div&gt;&lt;br&gt;&lt;/div&gt;" style="text;whiteSpace=wrap;html=1;" vertex="1" parent="1">
          <mxGeometry x="920" y="460" width="200" height="40" as="geometry" />
        </mxCell>
        <mxCell id="k9Bzp2234azyIfwSC0rA-50" style="edgeStyle=orthogonalEdgeStyle;rounded=0;orthogonalLoop=1;jettySize=auto;html=1;exitX=0.25;exitY=0;exitDx=0;exitDy=0;entryX=1;entryY=0.75;entryDx=0;entryDy=0;" edge="1" parent="1" source="k9Bzp2234azyIfwSC0rA-32" target="k9Bzp2234azyIfwSC0rA-7">
          <mxGeometry relative="1" as="geometry" />
        </mxCell>
        <mxCell id="k9Bzp2234azyIfwSC0rA-32" value="&lt;span style=&quot;font-size: 12px;&quot;&gt;StateA.3&amp;nbsp; &amp;nbsp;Error&lt;/span&gt;" style="swimlane;childLayout=stackLayout;horizontal=1;startSize=50;horizontalStack=0;rounded=1;fontSize=14;fontStyle=0;strokeWidth=2;resizeParent=0;resizeLast=1;shadow=0;dashed=0;align=center;arcSize=4;whiteSpace=wrap;html=1;" vertex="1" parent="1">
          <mxGeometry x="470" y="250" width="160" height="100" as="geometry" />
        </mxCell>
        <mxCell id="k9Bzp2234azyIfwSC0rA-33" value="&lt;div&gt;entry/ logError()&amp;nbsp; &amp;nbsp;&amp;nbsp;&lt;/div&gt;&lt;div&gt;&lt;span style=&quot;background-color: transparent; color: light-dark(rgb(0, 0, 0), rgb(255, 255, 255));&quot;&gt;entry/ notifyUser()&lt;/span&gt;&lt;/div&gt;" style="align=left;strokeColor=none;fillColor=none;spacingLeft=4;spacingRight=4;fontSize=12;verticalAlign=top;resizable=0;rotatable=0;part=1;html=1;whiteSpace=wrap;" vertex="1" parent="k9Bzp2234azyIfwSC0rA-32">
          <mxGeometry y="50" width="160" height="50" as="geometry" />
        </mxCell>
        <mxCell id="k9Bzp2234azyIfwSC0rA-34" style="edgeStyle=orthogonalEdgeStyle;rounded=0;orthogonalLoop=1;jettySize=auto;html=1;exitX=0.5;exitY=1;exitDx=0;exitDy=0;entryX=0;entryY=0.5;entryDx=0;entryDy=0;" edge="1" parent="1" source="k9Bzp2234azyIfwSC0rA-7" target="k9Bzp2234azyIfwSC0rA-32">
          <mxGeometry relative="1" as="geometry" />
        </mxCell>
        <mxCell id="k9Bzp2234azyIfwSC0rA-35" value="&lt;span style=&quot;font-size: 12px; background-color: rgb(236, 236, 236);&quot;&gt;timeInvalid &amp;amp; Conflict&amp;nbsp;&lt;/span&gt;" style="edgeLabel;html=1;align=center;verticalAlign=middle;resizable=0;points=[];" vertex="1" connectable="0" parent="k9Bzp2234azyIfwSC0rA-34">
          <mxGeometry x="0.085" y="5" relative="1" as="geometry">
            <mxPoint x="34" y="-20" as="offset" />
          </mxGeometry>
        </mxCell>
        <mxCell id="k9Bzp2234azyIfwSC0rA-39" value="&lt;span style=&quot;color: rgb(0, 0, 0); font-family: Helvetica; font-size: 12px; font-style: normal; font-variant-ligatures: normal; font-variant-caps: normal; font-weight: 400; letter-spacing: normal; orphans: 2; text-align: left; text-indent: 0px; text-transform: none; widows: 2; word-spacing: 0px; -webkit-text-stroke-width: 0px; white-space: normal; background-color: rgb(236, 236, 236); text-decoration-thickness: initial; text-decoration-style: initial; text-decoration-color: initial; float: none; display: inline !important;&quot;&gt;Login Credentials Invalid&lt;/span&gt;" style="text;whiteSpace=wrap;html=1;" vertex="1" parent="1">
          <mxGeometry x="290" y="350" width="200" height="40" as="geometry" />
        </mxCell>
        <mxCell id="k9Bzp2234azyIfwSC0rA-43" style="rounded=0;orthogonalLoop=1;jettySize=auto;html=1;exitX=0.75;exitY=1;exitDx=0;exitDy=0;entryX=1;entryY=0.25;entryDx=0;entryDy=0;" edge="1" parent="1" source="k9Bzp2234azyIfwSC0rA-33" target="k9Bzp2234azyIfwSC0rA-8">
          <mxGeometry relative="1" as="geometry" />
        </mxCell>
        <mxCell id="k9Bzp2234azyIfwSC0rA-44" value="returnToAdminLogin" style="edgeLabel;html=1;align=center;verticalAlign=middle;resizable=0;points=[];" vertex="1" connectable="0" parent="k9Bzp2234azyIfwSC0rA-43">
          <mxGeometry x="-0.193" y="-1" relative="1" as="geometry">
            <mxPoint as="offset" />
          </mxGeometry>
        </mxCell>
        <mxCell id="k9Bzp2234azyIfwSC0rA-45" style="edgeStyle=orthogonalEdgeStyle;rounded=0;orthogonalLoop=1;jettySize=auto;html=1;exitX=0.5;exitY=1;exitDx=0;exitDy=0;" edge="1" parent="1" source="k9Bzp2234azyIfwSC0rA-22">
          <mxGeometry relative="1" as="geometry">
            <mxPoint x="1100" y="280" as="targetPoint" />
          </mxGeometry>
        </mxCell>
        <mxCell id="k9Bzp2234azyIfwSC0rA-46" value="&lt;span style=&quot;color: rgb(0, 0, 0); font-family: Helvetica; font-size: 12px; font-style: normal; font-variant-ligatures: normal; font-variant-caps: normal; font-weight: 400; letter-spacing: normal; orphans: 2; text-align: center; text-indent: 0px; text-transform: none; widows: 2; word-spacing: 0px; -webkit-text-stroke-width: 0px; white-space: nowrap; background-color: rgb(236, 236, 236); text-decoration-thickness: initial; text-decoration-style: initial; text-decoration-color: initial; float: none; display: inline !important;&quot;&gt;Cleanups if any&lt;/span&gt;&lt;div&gt;&lt;span style=&quot;color: rgb(0, 0, 0); font-family: Helvetica; font-size: 12px; font-style: normal; font-variant-ligatures: normal; font-variant-caps: normal; font-weight: 400; letter-spacing: normal; orphans: 2; text-align: center; text-indent: 0px; text-transform: none; widows: 2; word-spacing: 0px; -webkit-text-stroke-width: 0px; white-space: nowrap; background-color: rgb(236, 236, 236); text-decoration-thickness: initial; text-decoration-style: initial; text-decoration-color: initial; float: none; display: inline !important;&quot;&gt;&lt;br&gt;&lt;/span&gt;&lt;/div&gt;" style="text;whiteSpace=wrap;html=1;" vertex="1" parent="1">
          <mxGeometry x="1100" y="225" width="170" height="40" as="geometry" />
        </mxCell>
        <mxCell id="k9Bzp2234azyIfwSC0rA-47" value="" style="ellipse;whiteSpace=wrap;html=1;aspect=fixed;strokeColor=default;fillColor=#000000;" vertex="1" parent="1">
          <mxGeometry x="1085" y="287.5" width="30" height="30" as="geometry" />
        </mxCell>
        <mxCell id="k9Bzp2234azyIfwSC0rA-48" value="" style="ellipse;whiteSpace=wrap;html=1;aspect=fixed;strokeColor=default;fillColor=none;" vertex="1" parent="1">
          <mxGeometry x="1077.5" y="280" width="45" height="45" as="geometry" />
        </mxCell>
        <mxCell id="k9Bzp2234azyIfwSC0rA-51" value="&lt;span style=&quot;color: rgb(0, 0, 0); font-family: Helvetica; font-size: 11px; font-style: normal; font-variant-ligatures: normal; font-variant-caps: normal; font-weight: 400; letter-spacing: normal; orphans: 2; text-align: center; text-indent: 0px; text-transform: none; widows: 2; word-spacing: 0px; -webkit-text-stroke-width: 0px; white-space: nowrap; background-color: rgb(255, 255, 255); text-decoration-thickness: initial; text-decoration-style: initial; text-decoration-color: initial; float: none; display: inline !important;&quot;&gt;backtoReservationBooking&lt;/span&gt;" style="text;whiteSpace=wrap;html=1;" vertex="1" parent="1">
          <mxGeometry x="490" y="200" width="130" height="40" as="geometry" />
        </mxCell>
        <mxCell id="k9Bzp2234azyIfwSC0rA-54" value="&lt;span style=&quot;forced-color-adjust: none; color: rgb(0, 0, 0); font-family: Helvetica; font-size: 12px; font-style: normal; font-variant-ligatures: normal; font-variant-caps: normal; font-weight: 400; letter-spacing: normal; orphans: 2; text-indent: 0px; text-transform: none; widows: 2; word-spacing: 0px; -webkit-text-stroke-width: 0px; white-space: nowrap; text-decoration-thickness: initial; text-decoration-style: initial; text-decoration-color: initial; text-align: center; background-color: rgb(236, 236, 236); float: none; display: inline !important;&quot;&gt;Final State&lt;/span&gt;" style="text;whiteSpace=wrap;html=1;" vertex="1" parent="1">
          <mxGeometry x="1077.5" y="330" width="120" height="40" as="geometry" />
        </mxCell>
      </root>
    </mxGraphModel>
  </diagram>
</mxfile>
